# xmcd
# Copyright (C) 1995-1998 Ti Kan
#
# Track frame offsets:
#       150
#       23545
#       47497
#       67925
#       70315
#       102837
#       106767
#       132080
#       153110
#       178062
#       201427
#
# Disc length: 3220 seconds
#
# Revision: 0
# Processed by: cddbd v1.5.2PL0 Copyright (c) Steve Scherf et al.
# Submitted via: CD-Import v1.0
#
DISCID=870c920b
DTITLE=Beady Belle - Home
DYEAR=01
DGENRE=
TTITLE0=Ghosts
TTITLE1=Moderation
TTITLE2=Lose and Win
TTITLE3=On The Radio (Interlude)
TTITLE4=Drawback
TTITLE5=Waiting (Interlude)
TTITLE6=In A Good Way
TTITLE7=Game
TTITLE8=Mobile Bubble
TTITLE9=Pantile
TTITLE10=Consolatory Dance
EXTD=
EXTT0=
EXTT1=
EXTT2=
EXTT3=
EXTT4=
EXTT5=
EXTT6=
EXTT7=
EXTT8=
EXTT9=
EXTT10=
PLAYORDER=
